<?xml version="1.0" encoding="UTF-8"?>
<svg xmlns="http://www.w3.org/2000/svg" xmlns:xlink="http://www.w3.org/1999/xlink" width="48pt" height="48pt" viewBox="0 0 48 48" version="1.1">
<g id="surface14796396">
<path style=" stroke:none;fill-rule:nonzero;fill:rgb(100%,100%,100%);fill-opacity:1;" d="M 44.058594 24 C 44.058594 35.09375 35.09375 44.058594 24 44.058594 C 12.90625 44.058594 3.941406 35.09375 3.941406 24 C 3.941406 12.90625 12.90625 3.941406 24 3.941406 C 35.09375 3.941406 44.058594 12.90625 44.058594 24 Z M 44.058594 24 "/>
<path style=" stroke:none;fill-rule:nonzero;fill:rgb(20%,20%,20%);fill-opacity:1;" d="M 20.460938 44.058594 L 20.460938 37.570312 C 20.460938 37.214844 20.695312 36.980469 21.050781 36.980469 C 21.402344 36.980469 21.640625 37.214844 21.640625 37.570312 L 21.640625 44.058594 L 24 44.058594 L 24 36.390625 C 24 36.035156 24.234375 35.800781 24.589844 35.800781 C 24.945312 35.800781 25.179688 36.035156 25.179688 36.390625 L 25.179688 44.058594 L 27.539062 44.058594 L 27.539062 37.570312 C 27.539062 37.214844 27.777344 36.980469 28.128906 36.980469 C 28.484375 36.980469 28.71875 37.214844 28.71875 37.570312 L 28.71875 44.058594 L 30.84375 44.058594 C 31.078125 43.707031 31.078125 43.351562 31.078125 42.761719 L 31.078125 38.160156 C 31.078125 35.5625 28.839844 32.023438 26.007812 32.023438 L 23.054688 32.023438 C 20.34375 32.023438 17.980469 35.683594 17.980469 38.160156 L 17.980469 42.761719 C 17.980469 43.234375 18.101562 43.707031 18.21875 44.058594 Z M 42.996094 26.832031 C 42.996094 26.832031 41.464844 26.359375 40.164062 26.359375 L 40.046875 26.359375 C 38.75 26.359375 36.625 26.714844 36.625 26.714844 C 36.507812 26.714844 36.507812 26.714844 36.507812 26.597656 C 36.507812 26.476562 36.507812 26.476562 36.625 26.476562 C 36.742188 26.476562 38.984375 26.125 40.285156 26.125 C 41.582031 26.125 43.117188 26.597656 43.234375 26.597656 C 43.351562 26.597656 43.351562 26.714844 43.351562 26.832031 C 43.117188 26.714844 43.117188 26.832031 42.996094 26.832031 Z M 42.644531 27.777344 C 42.644531 27.777344 40.992188 27.304688 39.574219 27.304688 C 38.515625 27.304688 36.035156 27.539062 35.917969 27.539062 C 35.800781 27.539062 35.800781 27.539062 35.800781 27.421875 C 35.800781 27.304688 35.800781 27.304688 35.917969 27.304688 C 36.035156 27.304688 38.515625 27.066406 39.574219 27.066406 C 41.109375 27.066406 42.644531 27.539062 42.644531 27.539062 C 42.761719 27.539062 42.761719 27.65625 42.761719 27.777344 C 42.761719 27.65625 42.761719 27.777344 42.644531 27.777344 Z M 4.882812 26.832031 C 4.765625 26.832031 4.765625 26.832031 4.765625 26.714844 C 4.765625 26.597656 4.765625 26.597656 4.882812 26.476562 C 5.828125 26.242188 7.714844 25.886719 8.777344 25.886719 C 9.722656 25.886719 12.90625 26.125 13.027344 26.125 C 13.144531 26.125 13.144531 26.242188 13.144531 26.242188 C 13.144531 26.359375 13.027344 26.359375 13.027344 26.359375 C 13.027344 26.359375 9.839844 26.125 8.894531 26.125 C 7.597656 26.359375 5.828125 26.597656 4.882812 26.832031 Z M 5.355469 28.601562 C 5.355469 28.601562 5.238281 28.601562 5.238281 28.484375 C 5.238281 28.367188 5.238281 28.367188 5.238281 28.246094 C 5.355469 28.246094 6.890625 27.304688 8.660156 27.066406 C 10.195312 26.832031 13.378906 27.1875 13.617188 27.1875 C 13.734375 27.1875 13.734375 27.304688 13.734375 27.304688 C 13.734375 27.421875 13.617188 27.421875 13.617188 27.421875 C 13.617188 27.421875 10.3125 27.066406 8.777344 27.304688 C 7.007812 27.65625 5.355469 28.601562 5.355469 28.601562 Z M 5.355469 28.601562 "/>
<path style=" stroke:none;fill-rule:nonzero;fill:rgb(20%,20%,20%);fill-opacity:1;" d="M 12.4375 23.410156 C 12.4375 18.21875 17.863281 13.378906 24.589844 13.378906 C 31.316406 13.378906 36.742188 18.101562 36.742188 23.410156 C 36.742188 28.71875 32.851562 32.261719 24.589844 32.261719 C 16.328125 32.261719 12.4375 28.601562 12.4375 23.410156 Z M 12.4375 23.410156 "/>
<path style=" stroke:none;fill-rule:nonzero;fill:rgb(20%,20%,20%);fill-opacity:1;" d="M 29.429688 14.914062 C 29.429688 14.914062 31.433594 12.199219 35.09375 12.199219 C 36.507812 13.617188 35.5625 17.863281 35.09375 19.042969 Z M 19.753906 14.914062 C 19.753906 14.914062 17.746094 12.199219 14.089844 12.199219 C 12.671875 13.617188 13.617188 17.863281 14.089844 19.042969 Z M 19.398438 38.042969 C 19.398438 38.042969 16.683594 38.042969 16.09375 38.042969 C 14.679688 38.042969 13.378906 37.453125 12.789062 36.273438 C 12.082031 34.972656 11.492188 33.558594 9.722656 32.378906 C 9.367188 32.140625 9.605469 31.90625 10.195312 31.90625 C 10.785156 32.023438 11.847656 32.140625 12.671875 33.203125 C 13.496094 34.265625 14.441406 35.5625 15.976562 35.5625 C 17.511719 35.5625 19.160156 35.5625 20.105469 34.503906 Z M 19.398438 38.042969 "/>
<path style=" stroke:none;fill-rule:nonzero;fill:rgb(20%,20%,20%);fill-opacity:1;" d="M 24 0.398438 C 11.019531 0.398438 0.398438 11.019531 0.398438 24 C 0.398438 36.980469 11.019531 47.601562 24 47.601562 C 36.980469 47.601562 47.601562 36.980469 47.601562 24 C 47.601562 11.019531 36.980469 0.398438 24 0.398438 Z M 24 42.878906 C 13.617188 42.878906 5.121094 34.382812 5.121094 24 C 5.121094 13.617188 13.617188 5.121094 24 5.121094 C 34.382812 5.121094 42.878906 13.617188 42.878906 24 C 42.878906 34.382812 34.382812 42.878906 24 42.878906 Z M 24 42.878906 "/>
</g>
</svg>
