<?xml version="1.0" encoding="UTF-8"?>
<svg xmlns="http://www.w3.org/2000/svg" xmlns:xlink="http://www.w3.org/1999/xlink" width="48pt" height="48pt" viewBox="0 0 48 48" version="1.1">
<g id="surface14794197">
<path style=" stroke:none;fill-rule:nonzero;fill:rgb(20.392157%,59.607846%,85.882354%);fill-opacity:1;" d="M 24 1.921875 C 11.824219 1.921875 1.921875 11.824219 1.921875 24 C 1.921875 36.175781 11.824219 46.078125 24 46.078125 C 36.175781 46.078125 46.078125 36.175781 46.078125 24 C 46.078125 20.710938 45.351562 17.589844 44.058594 14.785156 C 43.167969 16.234375 41.789062 17.351562 40.140625 17.886719 C 40.867188 19.789062 41.28125 21.84375 41.28125 24 C 41.28125 33.527344 33.527344 41.28125 24 41.28125 C 14.472656 41.28125 6.71875 33.527344 6.71875 24 C 6.71875 14.472656 14.472656 6.71875 24 6.71875 C 26.59375 6.71875 29.042969 7.308594 31.25 8.335938 C 31.898438 6.742188 33.101562 5.433594 34.617188 4.648438 C 31.464844 2.910156 27.847656 1.921875 24 1.921875 Z M 37.921875 5.761719 C 35.003906 5.761719 32.640625 8.125 32.640625 11.039062 C 32.640625 13.957031 35.003906 16.320312 37.921875 16.320312 C 40.835938 16.320312 43.199219 13.957031 43.199219 11.039062 C 43.199219 8.125 40.835938 5.761719 37.921875 5.761719 Z M 24 14.398438 C 18.699219 14.398438 14.398438 18.699219 14.398438 24 C 14.398438 29.300781 18.699219 33.601562 24 33.601562 C 29.300781 33.601562 33.601562 29.300781 33.601562 24 C 33.601562 18.699219 29.300781 14.398438 24 14.398438 Z M 24 14.398438 "/>
</g>
</svg>
