<?xml version="1.0" encoding="UTF-8"?>
<svg xmlns="http://www.w3.org/2000/svg" xmlns:xlink="http://www.w3.org/1999/xlink" width="48pt" height="48pt" viewBox="0 0 48 48" version="1.1">
<g id="surface14796604">
<path style=" stroke:none;fill-rule:nonzero;fill:rgb(20%,20%,20%);fill-opacity:1;" d="M 47.398438 40.898438 C 47.398438 44.492188 44.492188 47.398438 40.898438 47.398438 L 7.101562 47.398438 C 3.511719 47.398438 0.601562 44.492188 0.601562 40.898438 L 0.601562 7.101562 C 0.601562 3.507812 3.511719 0.601562 7.101562 0.601562 L 40.898438 0.601562 C 44.492188 0.601562 47.398438 3.507812 47.398438 7.101562 Z M 47.398438 40.898438 "/>
<path style=" stroke:none;fill-rule:nonzero;fill:rgb(100%,100%,100%);fill-opacity:1;" d="M 8.398438 17.5 L 14.898438 17.5 L 14.898438 39.601562 L 8.398438 39.601562 Z M 11.628906 14.898438 L 11.59375 14.898438 C 9.65625 14.898438 8.398438 13.453125 8.398438 11.648438 C 8.398438 9.804688 9.695312 8.398438 11.667969 8.398438 C 13.644531 8.398438 14.863281 9.804688 14.898438 11.648438 C 14.898438 13.453125 13.644531 14.898438 11.628906 14.898438 Z M 39.601562 39.601562 L 33.101562 39.601562 L 33.101562 27.769531 C 33.101562 24.914062 31.507812 22.964844 28.949219 22.964844 C 27 22.964844 25.945312 24.28125 25.429688 25.550781 C 25.242188 26.007812 25.300781 27.265625 25.300781 27.898438 L 25.300781 39.601562 L 18.800781 39.601562 L 18.800781 17.5 L 25.300781 17.5 L 25.300781 20.902344 C 26.238281 19.449219 27.703125 17.5 31.460938 17.5 C 36.109375 17.5 39.597656 20.425781 39.597656 26.957031 Z M 39.601562 39.601562 "/>
</g>
</svg>
