<?xml version="1.0" encoding="UTF-8"?>
<svg xmlns="http://www.w3.org/2000/svg" xmlns:xlink="http://www.w3.org/1999/xlink" width="48pt" height="48pt" viewBox="0 0 48 48" version="1.1">
<g id="surface14795530">
<path style=" stroke:none;fill-rule:nonzero;fill:rgb(20%,20%,20%);fill-opacity:1;" d="M 37 47.398438 L 11 47.398438 C 5.265625 47.398438 0.601562 42.734375 0.601562 37 L 0.601562 11 C 0.601562 5.265625 5.265625 0.601562 11 0.601562 L 37 0.601562 C 42.734375 0.601562 47.398438 5.265625 47.398438 11 L 47.398438 37 C 47.398438 42.734375 42.734375 47.398438 37 47.398438 Z M 37 47.398438 "/>
<path style=" stroke:none;fill-rule:nonzero;fill:rgb(100%,100%,100%);fill-opacity:1;" d="M 39.503906 15.535156 L 31.039062 24 L 39.503906 32.464844 C 39.558594 32.25 39.601562 32.03125 39.601562 31.800781 L 39.601562 16.199219 C 39.601562 15.96875 39.558594 15.75 39.503906 15.535156 Z M 27.496094 23.867188 L 37.664062 13.695312 C 37.449219 13.640625 37.230469 13.601562 37 13.601562 L 11 13.601562 C 10.769531 13.601562 10.550781 13.640625 10.335938 13.695312 L 20.503906 23.867188 C 22.433594 25.792969 25.566406 25.792969 27.496094 23.867188 Z M 24 27.910156 C 22.128906 27.910156 20.265625 27.207031 18.8125 25.824219 L 10.335938 34.304688 C 10.550781 34.359375 10.769531 34.398438 11 34.398438 L 37 34.398438 C 37.230469 34.398438 37.449219 34.359375 37.664062 34.304688 L 29.1875 25.824219 C 27.734375 27.207031 25.871094 27.910156 24 27.910156 Z M 8.496094 15.535156 C 8.441406 15.75 8.398438 15.96875 8.398438 16.199219 L 8.398438 31.800781 C 8.398438 32.03125 8.441406 32.25 8.496094 32.464844 L 16.960938 24 Z M 8.496094 15.535156 "/>
</g>
</svg>
